# xmcd
#
# Track frame offsets: 
#        150
#        12678
#        27356
#        41336
#        53294
#        63543
#        77669
#        90779
#        106093
#        120186
#        133395
#        147137
#        160235
#        172736
#        185917
#        199741
#        213976
#        227125
#        243150
#        255396
#
# Disc length: 3562 seconds
#
# Revision: 0
# Processed by: cddbd v1.5.2PL0 Copyright (c) Steve Scherf et al.
# Submitted via: ExactAudioCopy v0.99pb5
#
DISCID=fd0de814
DTITLE=Various Artist - Candy Man Blues - Disc 1
DYEAR=1900
DGENRE=Blues
TTITLE0=Candy Man Blues
TTITLE1=Highway 49
TTITLE2=I Be's Troubled
TTITLE3=When You Got A Good Friend
TTITLE4=Down Baby
TTITLE5=Lady Luck Blues
TTITLE6=Good Morning Blues
TTITLE7=Country Blues
TTITLE8=Stomp Boogie
TTITLE9=Brother James
TTITLE10=New York City
TTITLE11=L.A. Blues
TTITLE12=Train Whistle Blues
TTITLE13=Burr Clover Farm Blues
TTITLE14=Alberta
TTITLE15=Guess Who
TTITLE16=Frisco Town
TTITLE17=Country Blues #2
TTITLE18=Stormy Sea Blues
TTITLE19=Mean Old Frisco Blues
EXTD=
EXTT0=
EXTT1=
EXTT2=
EXTT3=
EXTT4=
EXTT5=
EXTT6=
EXTT7=
EXTT8=
EXTT9=
EXTT10=
EXTT11=
EXTT12=
EXTT13=
EXTT14=
EXTT15=
EXTT16=
EXTT17=
EXTT18=
EXTT19=
PLAYORDER=
